<svg xmlns="http://www.w3.org/2000/svg" viewBox="0 0 340 85" width="100%" height="100%">
  <defs>
    <linearGradient id="goldGradient" x1="0%" y1="0%" x2="100%" y2="100%">
      <stop offset="0%" stop-color="#FFD700" />
      <stop offset="100%" stop-color="#F59E0B" />
    </linearGradient>
    <linearGradient id="blueGradient" x1="0%" y1="0%" x2="100%" y2="100%">
      <stop offset="0%" stop-color="#1E3A8A" />
      <stop offset="100%" stop-color="#0F172A" />
    </linearGradient>
  </defs>

  <rect x="0" y="0" width="340" height="85" rx="10" fill="#FFFFFF" />

  <g transform="translate(12, 10)">
    <polygon points="35,5 65,18 35,31 5,18" fill="url(#blueGradient)" />
    <path d="M 18,24 L 18,42 A 17,10 0 0,0 52,42 L 52,24" fill="none" stroke="url(#blueGradient)" stroke-width="4"/>
    <line x1="65" y1="18" x2="65" y2="38" stroke="url(#goldGradient)" stroke-width="3" stroke-linecap="round"/>
    <circle cx="65" cy="41" r="3.5" fill="#F59E0B"/>
    
    <path d="M 0,55 L 25,38 L 45,48 L 75,25" fill="none" stroke="url(#goldGradient)" stroke-width="3.5" stroke-linecap="round" stroke-linejoin="round"/>
    <circle cx="0" cy="55" r="3" fill="#1E3A8A" />
    <circle cx="25" cy="38" r="3" fill="#1E3A8A" />
    <circle cx="45" cy="48" r="3" fill="#1E3A8A" />
    <circle cx="75" cy="25" r="3" fill="#1E3A8A" />
  </g>

  <text x="96" y="48" font-family="'Segoe UI', Roboto, Helvetica, Arial, sans-serif" font-size="38" font-weight="800" fill="url(#blueGradient)">
    Uni<tspan fill="url(#goldGradient)">Pathway</tspan>
  </text>

  <text x="100" y="70" font-family="'Segoe UI', Roboto, Helvetica, Arial, sans-serif" font-size="10" font-weight="600" fill="#64748B" letter-spacing="2.2">
    SMART ACADEMIC CONSULTANT
  </text>
</svg>
